<?xml version="1.0" encoding="utf-8"?>
<!-- Generator: Adobe Illustrator 21.0.0, SVG Export Plug-In . SVG Version: 6.00 Build 0)  -->
<svg version="1.1" id="Layer_1" xmlns="http://www.w3.org/2000/svg" xmlns:xlink="http://www.w3.org/1999/xlink" x="0px" y="0px"
	 viewBox="0 0 6000 2496" style="enable-background:new 0 0 6000 2496;" xml:space="preserve">
<style type="text/css">
	.st0{fill-rule:evenodd;clip-rule:evenodd;fill:#FFFFFF;}
	.st1{fill:#FFFFFF;}
</style>
<path class="st0" d="M1654.1,1121.2c-162.7,26.3-282.1,24.3-282.1,24.3s-119.4,2-282.1-24.3c-137.1-22.2-278.1-53.3-362.3-73
	C816.2,777,1071.2,581,1372,581s555.8,196,644.4,467.2C1932.2,1067.9,1791.2,1099,1654.1,1121.2z M1089.9,1464.7
	C1252.6,1491,1372,1489,1372,1489s119.4,2,282.1-24.3c149.5-24.2,303.6-59,383.7-78.1c-59.7,313.4-335.1,550.3-665.8,550.3
	s-606.1-236.9-665.8-550.3C786.3,1405.7,940.4,1440.5,1089.9,1464.7z"/>
<path class="st0" d="M1843,1320c0,0,0.5-11.3-6.4-26.3c-13.7-29.9-49.7-74.7-136.6-74.7c-69.8,0-119.6,38.3-141.1,73.3
	c-22.4,36.5-15.9,69.7-15.9,69.7L1843,1320z"/>
<path class="st0" d="M901,1320c0,0-0.5-11.3,6.4-26.3c13.7-29.9,49.7-74.7,136.6-74.7c69.8,0,119.6,38.3,141.1,73.3
	c22.4,36.5,15.9,69.7,15.9,69.7L901,1320z"/>
<path class="st1" d="M2513.4,1581.9h101.7v-630h-88.2V1329h-1.8l-99.9-377.1H2301v630h89.1v-456.3h1.8L2513.4,1581.9z"/>
<path class="st1" d="M2686.2,1581.9h99v-630h-99V1581.9z"/>
<path class="st1" d="M3068.7,1581.9h101.7v-630h-88.2V1329h-1.8l-99.9-377.1h-124.2v630h89.1v-456.3h1.8L3068.7,1581.9z"/>
<path class="st1" d="M3214.5,1581.9c16.2,1.8,29.7,1.8,47.7,1.8c74.7,0,142.2-32.4,142.2-158.4V951.9h-99v480.6
	c0,48.6-25.2,60.3-56.7,60.3c-10.8,0-23.4,0-34.2-0.9V1581.9z"/>
<path class="st1" d="M3691.5,951.9h-144.9l-100.8,630h90.9l17.1-114.3h121.5l17.1,114.3h99.9L3691.5,951.9z M3613.2,1063.5h1.8
	l46.8,318.6h-95.4L3613.2,1063.5z"/>
<path class="st1" d="M3977.7,1581.9h261.9v-90h-162.9v-540h-99V1581.9z"/>
<path class="st1" d="M4502.4,951.9h-144.9l-100.8,630h90.9l17.1-114.3h121.5l17.1,114.3h99.9L4502.4,951.9z M4424.1,1063.5h1.8
	l46.8,318.6h-95.4L4424.1,1063.5z"/>
<path class="st1" d="M4798.5,951.9h-149.4v630h155.7c99,0,150.3-52.2,150.3-149.4v-51.3c0-66.6-20.7-113.4-73.8-134.1v-1.8
	c44.1-20.7,63.9-61.2,63.9-126v-22.5C4945.2,999.6,4901.1,951.9,4798.5,951.9z M4792.2,1298.4c45,0,63.9,18,63.9,76.5v54.9
	c0,46.8-18,62.1-51.3,62.1h-56.7v-193.5H4792.2z M4795.8,1041.9c35.1,0,50.4,19.8,50.4,64.8v35.1c0,50.4-22.5,66.6-59.4,66.6h-38.7
	v-166.5H4795.8z"/>
<path class="st1" d="M5001.9,1103.1c0,72,26.1,124.2,108.9,197.1c64.8,56.7,84.6,90.9,84.6,136.8c0,45-19.8,61.2-51.3,61.2
	c-31.5,0-51.3-16.2-51.3-61.2v-45h-93.6v38.7c0,100.8,50.4,158.4,147.6,158.4s147.6-57.6,147.6-158.4c0-72-26.1-124.2-108.9-197.1
	c-64.8-56.7-84.6-90.9-84.6-136.8c0-45,18-62.1,49.5-62.1s49.5,17.1,49.5,62.1v26.1h93.6v-19.8c0-100.8-49.5-158.4-145.8-158.4
	S5001.9,1002.3,5001.9,1103.1z"/>
<path class="st0" d="M4050,797c21,0,38,17,38,38c0,21-17,38-38,38c-21,0-38-17-38-38C4012,814,4029,797,4050,797z"/>
<path class="st0" d="M3992,673c17.7,0,32,14.3,32,32c0,17.7-14.3,32-32,32c-17.7,0-32-14.3-32-32C3960,687.3,3974.3,673,3992,673z"
	/>
<path class="st0" d="M4050,559c14.9,0,27,12.1,27,27c0,14.9-12.1,27-27,27c-14.9,0-27-12.1-27-27C4023,571.1,4035.1,559,4050,559z"
	/>
</svg>
